#!OML:ASF H:\ManfredETheater\Project 1\Capture day 1\Session 1\subject.ASF
:FULLY-SPECIFIED
:DEGREES
167
root 1.79407 7.04936 -22.0634 151.258 -25.0291 -138.144
lowerback 48.6667 1.23932 1.2499
upperback 11.2358 -1.73425 5.03027
thorax -7.72603 -2.88845 5.82339
lowerneck -11.8381 -6.69515 -6.65884
upperneck 4.88271 -10.9195 21.5636
head 5.11321 -4.90646 6.90778
rclavicle 1.78111e-013 2.22639e-014
rhumerus 25.7154 -11.4016 -35.2817
rradius 81.1495
rwrist -14.0229
rhand -28.8246 -4.13297
rfingers 7.12502
rthumb -2.18231 -34.1016
lclavicle 1.78111e-013 2.22639e-014
lhumerus -15.3182 -5.25417 69.6999
lradius 46.1696
lwrist -33.6871
lhand -55.2817 -48.1869
lfingers 7.12502
lthumb -27.6495 -20.1989
rfemur -110.867 -19.7485 38.9137
rtibia 92.4468
rfoot 11.7563 11.0205
rtoes -37.7416
lfemur -93.0496 46.4549 -57.0732
ltibia 140.441
lfoot -15.1826 -21.2277
ltoes 0.227146
168
root 1.83549 7.21296 -22.3244 152.101 -26.493 -138.497
lowerback 48.6512 1.0615 0.952574
upperback 11.3181 -2.07063 4.80686
thorax -7.60638 -3.00958 5.849
lowerneck -11.7142 -6.66728 -6.67359
upperneck 4.38102 -10.9016 22.1131
head 4.98111 -4.93651 7.09424
rclavicle -2.54444e-014 -7.95139e-014
rhumerus 24.8114 -10.9286 -36.1777
rradius 81.704
rwrist -13.9502
rhand -28.5633 -3.83744
rfingers 7.12502
rthumb -1.92999 -33.8085
lclavicle -2.54444e-014 -7.95139e-014
lhumerus -15.1372 -5.18451 68.6726
lradius 45.041
lwrist -33.7243
lhand -56.0521 -51.7974
lfingers 7.12502
lthumb -28.386 -23.9297
rfemur -112.063 -18.9791 40.8833
rtibia 91.9794
rfoot 11.714 10.705
rtoes -37.6397
lfemur -92.3066 47.8716 -55.7358
ltibia 140.919
lfoot -15.3251 -24.2878
ltoes -0.748269
169
root 1.87936 7.37163 -22.5911 153.034 -28.0839 -138.945
lowerback 47.572 0.925339 0.47345
upperback 12.3623 -2.44158 4.56212
thorax -7.48871 -3.11403 5.98491
lowerneck -11.575 -6.66889 -6.71343
upperneck 3.86271 -10.9185 22.6919
head 4.85128 -4.98814 7.29171
rclavicle -1.90833e-014 -7.95139e-014
rhumerus 23.7776 -10.5725 -37.0566
rradius 82.2886
rwrist -13.8292
rhand -28.2663 -3.58519
rfingers 7.12502
rthumb -1.64314 -33.5586
lclavicle -1.90833e-014 -7.95139e-014
lhumerus -14.835 -5.04102 67.7124
lradius 43.7741
lwrist -33.6216
lhand -56.5597 -55.2787
lfingers 7.12502
lthumb -28.8709 -27.4928
rfemur -113.246 -18.2408 42.5523
rtibia 91.8085
rfoot 11.637 10.3126
rtoes -37.3134
lfemur -91.3587 48.9309 -54.1962
ltibia 141.34
lfoot -15.3064 -27.3889
ltoes -0.786939
170
root 1.92552 7.52519 -22.8619 154.051 -29.7865 -139.532
lowerback 47.3466 0.749146 0.0471589
upperback 12.4319 -2.79389 4.29795
thorax -7.32824 -3.22941 6.04555
lowerneck -11.421 -6.69999 -6.75986
upperneck 3.33182 -10.9722 23.2921
head 4.72419 -5.06205 7.49439
rclavicle -6.36111e-015 4.45278e-014
rhumerus 22.6022 -10.3415 -37.8972
rradius 82.8842
rwrist -13.6449
rhand -27.9695 -3.38016
rfingers 7.12502
rthumb -1.35641 -33.3556
lclavicle -6.36111e-015 4.45278e-014
lhumerus -14.38 -4.82198 66.8248
lradius 42.3404
lwrist -33.4882
lhand -56.9451 -58.924
lfingers 7.12502
lthumb -29.2391 -31.2016
rfemur -114.34 -17.535 43.8178
rtibia 91.9151
rfoot 11.5883 9.79241
rtoes -36.6937
lfemur -90.2316 49.5543 -52.5679
ltibia 141.682
lfoot -15.0771 -30.3024
ltoes 0.189313
171
root 1.97371 7.67463 -23.1337 155.123 -31.5838 -140.27
lowerback 47.1121 0.590275 -0.427929
upperback 12.4896 -3.13824 4.02149
thorax -7.17697 -3.33928 6.11364
lowerneck -11.2475 -6.75941 -6.81361
upperneck 2.79705 -11.0575 23.8952
head 4.59979 -5.15496 7.69727
rclavicle 7.31528e-014 1.59028e-014
rhumerus 21.3057 -10.2304 -38.689
rradius 83.4689
rwrist -13.4351
rhand -27.6711 -3.2154
rfingers 7.12502
rthumb -1.06829 -33.1925
lclavicle 7.31528e-014 1.59028e-014
lhumerus -13.7603 -4.49846 66.0131
lradius 40.7187
lwrist -33.4743
lhand -57.2357 -62.569
lfingers 7.12502
lthumb -29.5165 -34.8953
rfemur -115.254 -16.8937 44.6394
rtibia 92.258
rfoot 11.5692 9.14598
rtoes -35.9813
lfemur -88.9567 49.717 -50.9653
ltibia 141.941
lfoot -14.6875 -32.7663
ltoes 2.06181
172
root 2.02411 7.8221 -23.4027 156.223 -33.4186 -141.16
lowerback 46.9192 0.470012 -0.950135
upperback 12.5434 -3.45871 3.74776
thorax -7.03827 -3.44227 6.2
lowerneck -11.0713 -6.84416 -6.88946
upperneck 2.27209 -11.1661 24.4836
head 4.48343 -5.26001 7.89779
rclavicle 1.08139e-013 9.85972e-014
rhumerus 19.9556 -10.2208 -39.4301
rradius 84.0147
rwrist -13.2261
rhand -27.3915 -3.10044
rfingers 7.12502
rthumb -0.79822 -33.0787
lclavicle 1.08139e-013 9.85972e-014
lhumerus -12.96 -4.02772 65.284
lradius 38.8871
lwrist -33.6731
lhand -57.4709 -66.0293
lfingers 7.12502
lthumb -29.741 -38.3954
rfemur -115.869 -16.3146 45.0276
rtibia 92.764
rfoot 11.5748 8.25717
rtoes -34.983
lfemur -87.6554 49.5704 -49.5463
ltibia 142.121
lfoot -14.2034 -34.6235
ltoes 4.3826
173
root 2.07688 7.96888 -23.6673 157.279 -35.2319 -142.113
lowerback 46.8587 0.370798 -1.43344
upperback 12.5738 -3.74276 3.49836
thorax -6.95836 -3.53333 6.28454
lowerneck -10.9022 -6.95189 -6.99615
upperneck 1.77533 -11.2931 25.0404
head 4.38079 -5.37194 8.09214
rclavicle 6.04305e-014 -6.36111e-015
rhumerus 18.5963 -10.2825 -40.1246
rradius 84.4976
rwrist -13.0467
rhand -27.1385 -3.0358
rfingers 7.12502
rthumb -0.553827 -33.0148
lclavicle 6.04305e-014 -6.36111e-015
lhumerus -11.9981 -3.4206 64.6411
lradius 36.8485
lwrist -34.1032
lhand -57.6765 -69.1069
lfingers 7.12502
lthumb -29.9372 -41.5083
rfemur -116.081 -15.8063 45.0814
rtibia 93.3469
rfoot 11.5428 7.18232
rtoes -33.847
lfemur -86.3968 49.2374 -48.2945
ltibia 142.26
lfoot -13.7682 -35.7784
ltoes 6.45904
174
root 2.1315 8.1142 -23.9281 158.302 -37.0344 -143.088
lowerback 46.9015 0.259009 -1.84303
upperback 12.5747 -4.01074 3.27767
thorax -6.93678 -3.61806 6.36213
lowerneck -10.7389 -7.07833 -7.13092
upperneck 1.31123 -11.4328 25.5538
head 4.29083 -5.48675 8.27642
rclavicle 1.59028e-014 4.45278e-014
rhumerus 17.2763 -10.3928 -40.7821
rradius 84.8997
rwrist -12.9456
rhand -26.9045 -3.02754
rfingers 7.12502
rthumb -0.327843 -33.007
lclavicle 1.59028e-014 4.45278e-014
lhumerus -10.9074 -2.7099 64.089
lradius 34.6343
lwrist -34.689
lhand -57.8627 -71.6512
lfingers 7.12502
lthumb -30.1149 -44.0848
rfemur -115.9 -15.386 44.8579
rtibia 93.9277
rfoot 11.4491 5.86266
rtoes -32.0418
lfemur -85.2395 48.6615 -47.2496
ltibia 142.373
lfoot -13.4051 -36.2061
ltoes 8.10819
175
root 2.18706 8.2577 -24.1862 159.296 -38.8197 -144.058
lowerback 47.0286 0.115656 -2.1687
upperback 12.5442 -4.27867 3.08943
thorax -6.9705 -3.702 6.43795
lowerneck -10.5939 -7.21683 -7.30784
upperneck 0.89059 -11.5781 26.0278
head 4.21882 -5.59883 8.45478
rclavicle -4.45278e-014 2.8625e-014
rhumerus 16.0513 -10.5194 -41.413
rradius 85.2037
rwrist -12.9379
rhand -26.6885 -3.06665
rfingers 7.12502
rthumb -0.119222 -33.0464
lclavicle -4.45278e-014 2.8625e-014
lhumerus -9.73368 -1.90733 63.6308
lradius 32.2873
lwrist -35.335
lhand -58.0055 -73.3336
lfingers 7.12502
lthumb -30.2511 -45.7921
rfemur -115.327 -15.0392 44.4482
rtibia 94.4234
rfoot 11.0967 4.37034
rtoes -29.5045
lfemur -84.1722 47.8789 -46.3784
ltibia 142.465
lfoot -13.1823 -36.0093
ltoes 9.14474
176
root 2.24278 8.39889 -24.4431 160.311 -40.593 -145.008
lowerback 47.1518 -0.0715543 -2.40674
upperback 12.4837 -4.54951 2.93249
thorax -7.03772 -3.7829 6.50649
lowerneck -10.4565 -7.36718 -7.51059
upperneck 0.497932 -11.7312 26.4681
head 4.15819 -5.71117 8.626
rclavicle 1.30403e-013 7.95139e-014
rhumerus 14.9244 -10.6505 -42.0158
rradius 85.4086
rwrist -13.0253
rhand -26.4936 -3.17208
rfingers 7.12502
rthumb 0.0690511 -33.1518
lclavicle 1.30403e-013 7.95139e-014
lhumerus -8.5158 -1.06822 63.2696
lradius 29.8646
lwrist -35.9532
lhand -58.0748 -73.9716
lfingers 7.12502
lthumb -30.3172 -46.4422
rfemur -114.552 -14.7374 43.9398
rtibia 94.8009
rfoot 10.6108 2.72417
rtoes -26.0803
lfemur -83.2309 46.8731 -45.668
ltibia 142.541
lfoot -13.1153 -35.3274
ltoes 9.58809
177
root 2.29744 8.53801 -24.699 161.366 -42.3607 -145.941
lowerback 47.2447 -0.313439 -2.5567
upperback 12.391 -4.83235 2.79888
thorax -7.1348 -3.86304 6.56187
lowerneck -10.3441 -7.52977 -7.72291
upperneck 0.143477 -11.8988 26.8731
head 4.115 -5.82524 8.78502
rclavicle 1.20861e-013 1.68569e-013
rhumerus 13.8959 -10.7766 -42.5941
rradius 85.5123
rwrist -13.1753
rhand -26.3289 -3.33551
rfingers 7.12502
rthumb 0.228041 -33.3151
lclavicle 1.20861e-013 1.68569e-013
lhumerus -7.30016 -0.245622 63.0025
lradius 27.4224
lwrist -36.5099
lhand -58.082 -73.5391
lfingers 7.12502
lthumb -30.3241 -46.011
rfemur -113.776 -14.4858 43.3724
rtibia 95.0962
rfoot 10.0938 0.990407
rtoes -21.8792
lfemur -82.3935 45.6841 -45.0936
ltibia 142.581
lfoot -13.1667 -34.3321
ltoes 9.50968
178
root 2.35053 8.67245 -24.9573 162.489 -44.1021 -146.871
lowerback 47.2702 -0.59578 -2.64052
upperback 12.2676 -5.11745 2.68561
thorax -7.25226 -3.93773 6.60639
lowerneck -10.2516 -7.69984 -7.9397
upperneck -0.175426 -12.0768 27.2489
head 4.08699 -5.93961 8.93335
rclavicle 9.22361e-014 1.145e-013
rhumerus 12.9547 -10.8862 -43.1453
rradius 85.5211
rwrist -13.3445
rhand -26.1975 -3.54557
rfingers 7.12502
rthumb 0.354976 -33.525
lclavicle 9.22361e-014 1.145e-013
lhumerus -6.13818 0.519197 62.8181
lradius 25.0306
lwrist -37.0042
lhand -58.039 -71.8836
lfingers 7.12502
lthumb -30.2831 -44.348
rfemur -113.179 -14.2543 42.7485
rtibia 95.3886
rfoot 9.59455 -0.726806
rtoes -17.179
lfemur -81.6563 44.37 -44.5993
ltibia 142.597
lfoot -13.3036 -33.2111
ltoes 9.25579
179
root 2.40184 8.80246 -25.2165 163.696 -45.7937 -147.836
lowerback 47.2351 -0.890181 -2.68566
upperback 12.1147 -5.38642 2.59192
thorax -7.39147 -4.0001 6.64576
lowerneck -10.1815 -7.88024 -8.14647
upperneck -0.461738 -12.266 27.5684
head 4.07029 -6.05383 9.05858
rclavicle -3.81667e-014 -1.43125e-014
rhumerus 12.083 -10.9881 -43.6461
rradius 85.4402
rwrist -13.5012
rhand -26.0864 -3.76322
rfingers 7.12502
rthumb 0.462337 -33.7425
lclavicle -3.81667e-014 -1.43125e-014
lhumerus -5.05735 1.22952 62.7224
lradius 22.7449
lwrist -37.5024
lhand -57.9489 -69.16
lfingers 7.12502
lthumb -30.1971 -41.6086
rfemur -112.871 -14.0327 42.0377
rtibia 95.7502
rfoot 9.1587 -2.35493
rtoes -12.2097
lfemur -80.9829 42.9722 -44.1512
ltibia 142.575
lfoot -13.5034 -32.0753
ltoes 8.92161
